<svg width="806" height="446" viewBox="0 0 806 446" fill="none" xmlns="http://www.w3.org/2000/svg">
<rect width="806" height="446" rx="4" fill="white"/>
<rect x="28" y="23.1426" width="759" height="400" rx="39" fill="#DDE2FF"/>
<path d="M143.381 303.372V200.891H193.08C198.317 200.891 203.073 201.373 207.348 202.338C211.73 203.207 215.524 204.654 218.731 206.681C221.937 208.707 224.395 211.409 226.106 214.786C227.922 218.164 228.831 222.458 228.831 227.669C228.831 231.915 227.762 235.871 225.625 239.538C223.487 243.205 220.334 246.004 216.166 247.934C221.723 249.574 226.106 252.421 229.312 256.474C232.518 260.43 234.122 265.69 234.122 272.252C234.122 278.138 232.892 283.108 230.434 287.161C227.976 291.117 224.609 294.302 220.334 296.714C216.059 299.126 211.089 300.863 205.424 301.925C199.76 302.89 193.721 303.372 187.308 303.372H143.381ZM166.306 284.266H190.034C192.919 284.266 195.591 284.073 198.05 283.687C200.615 283.301 202.859 282.673 204.783 281.805C206.707 280.84 208.203 279.537 209.272 277.897C210.448 276.256 211.035 274.23 211.035 271.817C211.035 269.598 210.555 267.764 209.593 266.317C208.738 264.773 207.455 263.518 205.745 262.553C204.142 261.588 202.218 260.913 199.973 260.527C197.836 260.141 195.431 259.948 192.759 259.948H166.306V284.266ZM166.306 242.723H187.308C190.194 242.723 192.812 242.482 195.164 241.999C197.515 241.517 199.492 240.745 201.096 239.683C202.699 238.622 203.928 237.319 204.783 235.775C205.638 234.135 206.066 232.253 206.066 230.13C206.172 227.235 205.478 225.112 203.981 223.761C202.485 222.313 200.454 221.348 197.889 220.866C195.324 220.287 192.438 219.997 189.232 219.997H166.306V242.723Z" fill="#272F89"/>
<path d="M281.858 304.386C273.308 304.386 265.826 302.842 259.413 299.754C253 296.569 248.031 292.082 244.503 286.292C240.976 280.406 239.213 273.458 239.213 265.448C239.213 257.246 240.976 250.202 244.503 244.315C248.137 238.332 253.161 233.749 259.574 230.564C265.986 227.38 273.361 225.787 281.698 225.787C290.248 225.787 297.676 227.428 303.982 230.709C310.288 233.99 315.204 238.573 318.731 244.46C322.258 250.346 324.022 257.391 324.022 265.593C324.022 273.603 322.258 280.55 318.731 286.437C315.311 292.227 310.448 296.666 304.142 299.754C297.943 302.842 290.515 304.386 281.858 304.386ZM281.537 285.858C286.454 285.858 290.408 284.893 293.401 282.963C296.394 281.033 298.531 278.524 299.814 275.436C301.203 272.252 301.898 268.922 301.898 265.448C301.898 261.974 301.203 258.645 299.814 255.461C298.531 252.276 296.394 249.671 293.401 247.644C290.515 245.521 286.561 244.46 281.537 244.46C276.728 244.46 272.827 245.521 269.834 247.644C266.841 249.671 264.65 252.276 263.261 255.461C261.978 258.645 261.337 261.974 261.337 265.448C261.337 269.019 261.978 272.348 263.261 275.436C264.65 278.524 266.841 281.033 269.834 282.963C272.827 284.893 276.728 285.858 281.537 285.858Z" fill="#272F89"/>
<path d="M371.418 304.386C362.867 304.386 355.386 302.842 348.973 299.754C342.56 296.569 337.59 292.082 334.063 286.292C330.536 280.406 328.773 273.458 328.773 265.448C328.773 257.246 330.536 250.202 334.063 244.315C337.697 238.332 342.721 233.749 349.133 230.564C355.546 227.38 362.921 225.787 371.257 225.787C379.808 225.787 387.236 227.428 393.542 230.709C399.848 233.99 404.764 238.573 408.291 244.46C411.818 250.346 413.582 257.391 413.582 265.593C413.582 273.603 411.818 280.55 408.291 286.437C404.871 292.227 400.008 296.666 393.702 299.754C387.503 302.842 380.075 304.386 371.418 304.386ZM371.097 285.858C376.014 285.858 379.968 284.893 382.961 282.963C385.953 281.033 388.091 278.524 389.374 275.436C390.763 272.252 391.458 268.922 391.458 265.448C391.458 261.974 390.763 258.645 389.374 255.461C388.091 252.276 385.953 249.671 382.961 247.644C380.075 245.521 376.12 244.46 371.097 244.46C366.287 244.46 362.386 245.521 359.394 247.644C356.401 249.671 354.21 252.276 352.821 255.461C351.538 258.645 350.897 261.974 350.897 265.448C350.897 269.019 351.538 272.348 352.821 275.436C354.21 278.524 356.401 281.033 359.394 282.963C362.386 284.893 366.287 285.858 371.097 285.858Z" fill="#272F89"/>
<path d="M421.539 303.372V200.891H443.984V256.329H464.563L485.244 227.09H510.415L483.481 263.422L512.659 303.372H486.687L465.525 274.423H443.984V303.372H421.539Z" fill="#272F89"/>
<path d="M518.956 303.372V227.09H541.401V303.372H518.956ZM530.178 219.418C526.01 219.418 522.643 218.309 520.078 216.089C517.513 213.773 516.23 210.83 516.23 207.26C516.23 203.496 517.566 200.456 520.238 198.14C522.91 195.824 526.277 194.666 530.339 194.666C534.079 194.666 537.286 195.824 539.958 198.14C542.737 200.36 544.126 203.351 544.126 207.115C544.126 210.782 542.79 213.773 540.118 216.089C537.553 218.309 534.24 219.418 530.178 219.418Z" fill="#272F89"/>
<path d="M552.78 303.372V227.09H573.781L574.904 235.92C577.255 233.314 579.927 231.288 582.92 229.84C586.019 228.296 589.119 227.235 592.218 226.656C595.425 226.077 598.31 225.787 600.875 225.787C608.998 225.787 615.304 227.38 619.793 230.564C624.389 233.749 627.649 238.043 629.573 243.447C631.603 248.754 632.619 254.689 632.619 261.251V303.372H610.174V263.856C610.174 261.54 609.96 259.224 609.533 256.908C609.105 254.592 608.304 252.469 607.128 250.539C606.059 248.609 604.509 247.065 602.479 245.907C600.448 244.749 597.776 244.17 594.463 244.17C590.188 244.17 586.607 245.135 583.721 247.065C580.836 248.995 578.698 251.601 577.308 254.882C575.919 258.163 575.224 261.781 575.224 265.738V303.372H552.78Z" fill="#272F89"/>
<path d="M684.156 338.691C677.53 338.691 671.438 337.726 665.88 335.796C660.322 333.963 655.62 331.019 651.772 326.966C647.924 322.913 645.306 317.703 643.916 311.334H666.842C667.59 313.264 668.766 314.856 670.369 316.11C672.079 317.461 674.11 318.475 676.461 319.15C678.919 319.826 681.484 320.163 684.156 320.163C689.18 320.163 693.081 319.198 695.86 317.268C698.639 315.338 700.563 312.781 701.631 309.597C702.7 306.509 703.235 303.083 703.235 299.32V293.964C701.311 296.762 698.906 298.885 696.02 300.333C693.134 301.78 690.088 302.793 686.882 303.372C683.782 304.048 680.79 304.386 677.904 304.386C669.033 304.386 661.819 302.6 656.261 299.03C650.703 295.46 646.642 290.779 644.077 284.989C641.512 279.103 640.229 272.782 640.229 266.027C640.229 258.597 641.672 251.842 644.558 245.763C647.443 239.683 651.772 234.858 657.543 231.288C663.315 227.717 670.529 225.932 679.187 225.932C684.424 225.932 689.073 226.704 693.134 228.248C697.196 229.696 700.669 231.867 703.555 234.762L705.479 227.09H726V293.674C726 302.938 724.664 310.899 721.992 317.558C719.32 324.313 714.884 329.524 708.685 333.191C702.593 336.858 694.417 338.691 684.156 338.691ZM682.874 286.147C687.577 286.147 691.424 285.182 694.417 283.252C697.516 281.322 699.814 278.765 701.311 275.581C702.807 272.3 703.555 268.778 703.555 265.014C703.555 261.058 702.807 257.535 701.311 254.448C699.814 251.263 697.57 248.754 694.577 246.921C691.585 244.991 687.737 244.026 683.034 244.026C677.904 244.026 673.843 245.135 670.85 247.355C667.857 249.478 665.72 252.18 664.437 255.461C663.262 258.645 662.674 262.023 662.674 265.593C662.674 269.26 663.315 272.686 664.598 275.87C665.88 278.958 668.018 281.467 671.01 283.397C674.003 285.231 677.958 286.147 682.874 286.147Z" fill="#272F89"/>
<path d="M288.77 265.659C291.761 265.659 294.154 265.09 295.949 263.952C297.803 262.814 299.149 261.314 299.987 259.452C300.824 257.59 301.243 255.573 301.243 253.401C301.243 251.229 300.824 249.186 299.987 247.272C299.149 245.358 297.803 243.832 295.949 242.694C294.154 241.505 291.761 240.91 288.77 240.91C285.778 240.91 283.356 241.505 281.501 242.694C279.646 243.832 278.3 245.358 277.463 247.272C276.625 249.134 276.206 251.177 276.206 253.401C276.206 255.573 276.625 257.616 277.463 259.53C278.36 261.392 279.706 262.892 281.501 264.03C283.356 265.116 285.778 265.659 288.77 265.659Z" fill="#272F89"/>
<path d="M378.577 265.659C381.568 265.659 383.961 265.09 385.756 263.952C387.61 262.814 388.956 261.314 389.794 259.452C390.631 257.59 391.05 255.573 391.05 253.401C391.05 251.229 390.631 249.186 389.794 247.272C388.956 245.358 387.61 243.832 385.756 242.694C383.961 241.505 381.568 240.91 378.577 240.91C375.585 240.91 373.162 241.505 371.308 242.694C369.453 243.832 368.107 245.358 367.27 247.272C366.432 249.134 366.013 251.177 366.013 253.401C366.013 255.573 366.432 257.616 367.27 259.53C368.167 261.392 369.513 262.892 371.308 264.03C373.162 265.116 375.585 265.659 378.577 265.659Z" fill="#272F89"/>
<path d="M552.049 158.624V143.281L593.732 100.436H552.049V82.342H622.59V97.5406L580.746 140.531H622.59V158.624H552.049Z" fill="#272F89"/>
<path d="M667.923 193.798C661.403 193.798 655.044 193.026 648.845 191.482C642.646 189.938 636.821 187.333 631.37 183.666L638.905 167.454C642.325 169.77 646.226 171.603 650.608 172.954C654.99 174.402 659.853 175.126 665.197 175.126C673.427 175.126 679.519 173.389 683.474 169.915C687.535 166.441 689.566 161.423 689.566 154.861V150.808C687.749 153.027 685.451 154.813 682.672 156.164C680 157.418 677.114 158.335 674.015 158.914C670.915 159.493 667.816 159.782 664.716 159.782C656.593 159.782 650.074 158.238 645.157 155.15C640.241 152.062 636.66 147.865 634.416 142.557C632.278 137.153 631.21 131.026 631.21 124.174V82.342H653.654V119.977C653.654 122.486 653.815 124.995 654.135 127.503C654.456 130.012 655.204 132.328 656.38 134.451C657.555 136.574 659.319 138.311 661.67 139.662C664.022 140.917 667.175 141.544 671.129 141.544C676.259 141.544 680.107 140.434 682.672 138.215C685.237 135.899 686.947 133.004 687.802 129.53C688.764 126.056 689.245 122.437 689.245 118.674V82.342H711.69V147.624C711.69 154.571 710.942 160.892 709.445 166.586C708.056 172.279 705.651 177.152 702.231 181.205C698.918 185.258 694.429 188.346 688.764 190.469C683.206 192.688 676.259 193.798 667.923 193.798Z" fill="#272F89"/>
<path d="M468.72 158.624V143.281L510.404 100.436H468.72V82.342H539.261V97.5406L497.418 140.531H539.261V158.624H468.72Z" fill="#272F89"/>
<path d="M434.577 158.624V56.1426H457.503V158.624H434.577Z" fill="#272F89"/>
<path d="M155.592 371.79H152.927C152.824 371.221 152.633 370.72 152.354 370.287C152.075 369.854 151.734 369.487 151.329 369.185C150.925 368.883 150.472 368.655 149.971 368.502C149.476 368.348 148.949 368.271 148.391 368.271C147.383 368.271 146.481 368.524 145.683 369.031C144.892 369.538 144.265 370.281 143.804 371.261C143.349 372.24 143.121 373.436 143.121 374.848C143.121 376.272 143.349 377.473 143.804 378.453C144.265 379.432 144.895 380.172 145.692 380.673C146.489 381.175 147.386 381.425 148.383 381.425C148.935 381.425 149.459 381.351 149.954 381.203C150.455 381.049 150.908 380.824 151.312 380.528C151.717 380.232 152.058 379.871 152.337 379.443C152.622 379.011 152.818 378.515 152.927 377.957L155.592 377.966C155.449 378.826 155.173 379.617 154.763 380.34C154.359 381.058 153.838 381.679 153.2 382.202C152.568 382.721 151.845 383.122 151.03 383.407C150.216 383.692 149.328 383.834 148.365 383.834C146.851 383.834 145.501 383.475 144.317 382.758C143.132 382.034 142.198 381.001 141.515 379.657C140.837 378.313 140.499 376.71 140.499 374.848C140.499 372.98 140.84 371.377 141.524 370.039C142.207 368.695 143.141 367.665 144.325 366.947C145.51 366.224 146.856 365.862 148.365 365.862C149.294 365.862 150.159 365.996 150.962 366.264C151.771 366.526 152.497 366.913 153.14 367.425C153.784 367.932 154.316 368.553 154.737 369.288C155.159 370.016 155.444 370.851 155.592 371.79ZM160.193 383.595V366.101H171.161V368.374H162.832V373.704H170.588V375.967H162.832V381.323H171.263V383.595H160.193ZM176.129 383.595V366.101H182.365C183.726 366.101 184.853 366.349 185.747 366.845C186.641 367.34 187.31 368.018 187.754 368.878C188.199 369.732 188.421 370.694 188.421 371.765C188.421 372.841 188.196 373.809 187.746 374.669C187.302 375.523 186.63 376.201 185.73 376.702C184.836 377.197 183.711 377.445 182.356 377.445H178.068V375.207H182.117C182.977 375.207 183.674 375.059 184.21 374.763C184.745 374.461 185.138 374.051 185.388 373.533C185.639 373.015 185.764 372.425 185.764 371.765C185.764 371.104 185.639 370.518 185.388 370.005C185.138 369.493 184.742 369.091 184.201 368.801C183.666 368.51 182.96 368.365 182.083 368.365H178.769V383.595H176.129ZM192.958 383.595V366.101H199.364C200.606 366.101 201.634 366.306 202.448 366.716C203.262 367.121 203.871 367.67 204.276 368.365C204.68 369.054 204.882 369.831 204.882 370.697C204.882 371.426 204.748 372.041 204.481 372.542C204.213 373.037 203.854 373.436 203.404 373.738C202.96 374.034 202.471 374.25 201.935 374.387V374.558C202.516 374.586 203.083 374.774 203.635 375.121C204.193 375.463 204.654 375.95 205.019 376.582C205.383 377.214 205.566 377.983 205.566 378.888C205.566 379.782 205.355 380.585 204.933 381.297C204.518 382.003 203.874 382.564 203.003 382.98C202.132 383.39 201.019 383.595 199.663 383.595H192.958ZM195.597 381.331H199.407C200.671 381.331 201.577 381.086 202.123 380.597C202.67 380.107 202.943 379.495 202.943 378.76C202.943 378.208 202.804 377.701 202.525 377.24C202.246 376.779 201.847 376.411 201.329 376.138C200.816 375.865 200.207 375.728 199.501 375.728H195.597V381.331ZM195.597 373.669H199.134C199.726 373.669 200.258 373.555 200.731 373.328C201.209 373.1 201.588 372.781 201.867 372.371C202.152 371.955 202.294 371.466 202.294 370.902C202.294 370.179 202.041 369.572 201.534 369.083C201.027 368.593 200.25 368.348 199.202 368.348H195.597V373.669ZM210.139 366.101H212.753V378.948H212.915L221.816 366.101H224.258V383.595H221.619V370.765H221.457L212.574 383.595H210.139V366.101ZM244.081 371.79H241.416C241.314 371.221 241.123 370.72 240.844 370.287C240.565 369.854 240.223 369.487 239.819 369.185C239.415 368.883 238.962 368.655 238.461 368.502C237.965 368.348 237.439 368.271 236.881 368.271C235.873 368.271 234.97 368.524 234.173 369.031C233.381 369.538 232.755 370.281 232.294 371.261C231.838 372.24 231.61 373.436 231.61 374.848C231.61 376.272 231.838 377.473 232.294 378.453C232.755 379.432 233.384 380.172 234.181 380.673C234.979 381.175 235.875 381.425 236.872 381.425C237.424 381.425 237.948 381.351 238.444 381.203C238.945 381.049 239.397 380.824 239.802 380.528C240.206 380.232 240.548 379.871 240.827 379.443C241.111 379.011 241.308 378.515 241.416 377.957L244.081 377.966C243.939 378.826 243.663 379.617 243.253 380.34C242.848 381.058 242.327 381.679 241.689 382.202C241.057 382.721 240.334 383.122 239.52 383.407C238.706 383.692 237.817 383.834 236.855 383.834C235.34 383.834 233.991 383.475 232.806 382.758C231.622 382.034 230.688 381.001 230.005 379.657C229.327 378.313 228.988 376.71 228.988 374.848C228.988 372.98 229.33 371.377 230.013 370.039C230.696 368.695 231.63 367.665 232.815 366.947C233.999 366.224 235.346 365.862 236.855 365.862C237.783 365.862 238.649 365.996 239.452 366.264C240.26 366.526 240.986 366.913 241.63 367.425C242.273 367.932 242.806 368.553 243.227 369.288C243.648 370.016 243.933 370.851 244.081 371.79ZM257.969 383.595H255.167L261.463 366.101H264.512L270.807 383.595H268.006L263.06 369.279H262.923L257.969 383.595ZM258.439 376.744H267.527V378.965H258.439V376.744ZM277.416 366.101V383.595H274.777V366.101H277.416ZM290.228 373.738V375.959H282.472V373.738H290.228ZM308.955 366.101V383.595H306.324V368.356H298.09V383.595H295.459V366.101H308.955ZM329.63 374.848C329.63 376.716 329.288 378.322 328.605 379.666C327.921 381.004 326.985 382.034 325.795 382.758C324.61 383.475 323.263 383.834 321.754 383.834C320.24 383.834 318.887 383.475 317.697 382.758C316.513 382.034 315.579 381.001 314.896 379.657C314.212 378.313 313.871 376.71 313.871 374.848C313.871 372.98 314.212 371.377 314.896 370.039C315.579 368.695 316.513 367.665 317.697 366.947C318.887 366.224 320.24 365.862 321.754 365.862C323.263 365.862 324.61 366.224 325.795 366.947C326.985 367.665 327.921 368.695 328.605 370.039C329.288 371.377 329.63 372.98 329.63 374.848ZM327.016 374.848C327.016 373.425 326.785 372.226 326.324 371.252C325.869 370.273 325.242 369.532 324.445 369.031C323.654 368.524 322.757 368.271 321.754 368.271C320.747 368.271 319.847 368.524 319.055 369.031C318.264 369.532 317.637 370.273 317.176 371.252C316.721 372.226 316.493 373.425 316.493 374.848C316.493 376.272 316.721 377.473 317.176 378.453C317.637 379.426 318.264 380.167 319.055 380.673C319.847 381.175 320.747 381.425 321.754 381.425C322.757 381.425 323.654 381.175 324.445 380.673C325.242 380.167 325.869 379.426 326.324 378.453C326.785 377.473 327.016 376.272 327.016 374.848ZM333.04 387.823V381.357H334.193C334.586 381.027 334.953 380.557 335.295 379.947C335.636 379.338 335.927 378.515 336.166 377.479C336.405 376.443 336.57 375.113 336.661 373.49L337.071 366.101H347.859V381.357H349.841V387.797H347.313V383.595H335.568V387.823H333.04ZM337.302 381.357H345.331V368.374H339.463L339.19 373.49C339.116 374.726 338.993 375.836 338.822 376.821C338.657 377.806 338.444 378.678 338.182 379.435C337.925 380.187 337.632 380.827 337.302 381.357ZM354.176 383.595V366.101H365.083V368.374H356.815V373.157H360.727C362.025 373.157 363.127 373.368 364.033 373.789C364.944 374.21 365.638 374.805 366.117 375.574C366.601 376.343 366.843 377.248 366.843 378.29C366.843 379.332 366.601 380.252 366.117 381.049C365.638 381.847 364.944 382.47 364.033 382.92C363.127 383.37 362.025 383.595 360.727 383.595H354.176ZM356.815 381.374H360.727C361.479 381.374 362.114 381.226 362.632 380.93C363.156 380.634 363.551 380.249 363.819 379.777C364.092 379.304 364.229 378.797 364.229 378.256C364.229 377.47 363.927 376.796 363.324 376.232C362.72 375.662 361.855 375.378 360.727 375.378H356.815V381.374ZM386.599 374.848C386.599 376.716 386.258 378.322 385.574 379.666C384.891 381.004 383.954 382.034 382.764 382.758C381.58 383.475 380.233 383.834 378.724 383.834C377.209 383.834 375.857 383.475 374.667 382.758C373.482 382.034 372.548 381.001 371.865 379.657C371.182 378.313 370.84 376.71 370.84 374.848C370.84 372.98 371.182 371.377 371.865 370.039C372.548 368.695 373.482 367.665 374.667 366.947C375.857 366.224 377.209 365.862 378.724 365.862C380.233 365.862 381.58 366.224 382.764 366.947C383.954 367.665 384.891 368.695 385.574 370.039C386.258 371.377 386.599 372.98 386.599 374.848ZM383.985 374.848C383.985 373.425 383.755 372.226 383.294 371.252C382.838 370.273 382.212 369.532 381.414 369.031C380.623 368.524 379.726 368.271 378.724 368.271C377.716 368.271 376.816 368.524 376.025 369.031C375.233 369.532 374.607 370.273 374.146 371.252C373.69 372.226 373.462 373.425 373.462 374.848C373.462 376.272 373.69 377.473 374.146 378.453C374.607 379.426 375.233 380.167 376.025 380.673C376.816 381.175 377.716 381.425 378.724 381.425C379.726 381.425 380.623 381.175 381.414 380.673C382.212 380.167 382.838 379.426 383.294 378.453C383.755 377.473 383.985 376.272 383.985 374.848ZM391.333 383.595V366.101H397.568C398.929 366.101 400.057 366.349 400.951 366.845C401.845 367.34 402.514 368.018 402.958 368.878C403.402 369.732 403.624 370.694 403.624 371.765C403.624 372.841 403.4 373.809 402.95 374.669C402.506 375.523 401.834 376.201 400.934 376.702C400.04 377.197 398.915 377.445 397.56 377.445H393.272V375.207H397.321C398.181 375.207 398.878 375.059 399.413 374.763C399.949 374.461 400.342 374.051 400.592 373.533C400.843 373.015 400.968 372.425 400.968 371.765C400.968 371.104 400.843 370.518 400.592 370.005C400.342 369.493 399.946 369.091 399.405 368.801C398.87 368.51 398.164 368.365 397.287 368.365H393.972V383.595H391.333ZM407.784 383.595H404.982L411.277 366.101H414.327L420.622 383.595H417.82L412.875 369.279H412.738L407.784 383.595ZM408.254 376.744H417.342V378.965H408.254V376.744ZM431.076 387.823V381.357H432.229C432.622 381.027 432.99 380.557 433.331 379.947C433.673 379.338 433.963 378.515 434.202 377.479C434.442 376.443 434.607 375.113 434.698 373.49L435.108 366.101H445.896V381.357H447.878V387.797H445.349V383.595H433.605V387.823H431.076ZM435.338 381.357H443.368V368.374H437.5L437.226 373.49C437.152 374.726 437.03 375.836 436.859 376.821C436.694 377.806 436.48 378.678 436.218 379.435C435.962 380.187 435.669 380.827 435.338 381.357ZM450.888 383.595V381.306L451.401 381.288C452.095 381.271 452.642 381.035 453.041 380.58C453.445 380.124 453.738 379.389 453.92 378.376C454.108 377.362 454.234 376.01 454.296 374.319L454.595 366.101H465.657V383.595H463.051V368.339H457.081L456.807 375.019C456.733 376.892 456.546 378.467 456.244 379.742C455.942 381.012 455.429 381.972 454.706 382.621C453.989 383.27 452.967 383.595 451.64 383.595H450.888ZM483.346 383.595H480.698V368.365H477.384C476.518 368.365 475.815 368.496 475.274 368.758C474.733 369.014 474.337 369.384 474.087 369.868C473.836 370.352 473.711 370.925 473.711 371.585C473.711 372.24 473.836 372.801 474.087 373.268C474.337 373.735 474.73 374.091 475.266 374.336C475.801 374.58 476.498 374.703 477.358 374.703H481.843V376.975H477.111C475.761 376.975 474.636 376.75 473.737 376.3C472.843 375.85 472.171 375.221 471.721 374.412C471.277 373.598 471.055 372.656 471.055 371.585C471.055 370.509 471.277 369.561 471.721 368.741C472.165 367.915 472.834 367.269 473.728 366.802C474.628 366.335 475.752 366.101 477.102 366.101H483.346V383.595ZM474.71 375.702H477.632L473.386 383.595H470.388L474.71 375.702ZM496.45 383.595V366.101H502.856C504.098 366.101 505.126 366.306 505.94 366.716C506.754 367.121 507.364 367.67 507.768 368.365C508.172 369.054 508.374 369.831 508.374 370.697C508.374 371.426 508.241 372.041 507.973 372.542C507.705 373.037 507.347 373.436 506.897 373.738C506.452 374.034 505.963 374.25 505.427 374.387V374.558C506.008 374.586 506.575 374.774 507.127 375.121C507.685 375.463 508.147 375.95 508.511 376.582C508.875 377.214 509.058 377.983 509.058 378.888C509.058 379.782 508.847 380.585 508.426 381.297C508.01 382.003 507.366 382.564 506.495 382.98C505.624 383.39 504.511 383.595 503.155 383.595H496.45ZM499.09 381.331H502.899C504.163 381.331 505.069 381.086 505.615 380.597C506.162 380.107 506.435 379.495 506.435 378.76C506.435 378.208 506.296 377.701 506.017 377.24C505.738 376.779 505.339 376.411 504.821 376.138C504.309 375.865 503.699 375.728 502.993 375.728H499.09V381.331ZM499.09 373.669H502.626C503.218 373.669 503.75 373.555 504.223 373.328C504.701 373.1 505.08 372.781 505.359 372.371C505.644 371.955 505.786 371.466 505.786 370.902C505.786 370.179 505.533 369.572 505.026 369.083C504.519 368.593 503.742 368.348 502.694 368.348H499.09V373.669ZM515.109 383.595H512.307L518.603 366.101H521.652L527.947 383.595H525.145L520.2 369.279H520.063L515.109 383.595ZM515.579 376.744H524.667V378.965H515.579V376.744ZM532.147 366.101H534.761V381.306H540.535V366.101H543.149V381.306H548.906V366.101H551.511V383.595H532.147V366.101ZM557.037 383.595V366.101H568.005V368.374H559.676V373.704H567.432V375.967H559.676V381.323H568.107V383.595H557.037ZM583.881 366.101V368.374H575.613V383.595H572.973V366.101H583.881ZM602.743 374.848C602.743 376.716 602.401 378.322 601.718 379.666C601.034 381.004 600.098 382.034 598.907 382.758C597.723 383.475 596.376 383.834 594.867 383.834C593.353 383.834 592 383.475 590.81 382.758C589.626 382.034 588.692 381.001 588.008 379.657C587.325 378.313 586.983 376.71 586.983 374.848C586.983 372.98 587.325 371.377 588.008 370.039C588.692 368.695 589.626 367.665 590.81 366.947C592 366.224 593.353 365.862 594.867 365.862C596.376 365.862 597.723 366.224 598.907 366.947C600.098 367.665 601.034 368.695 601.718 370.039C602.401 371.377 602.743 372.98 602.743 374.848ZM600.129 374.848C600.129 373.425 599.898 372.226 599.437 371.252C598.981 370.273 598.355 369.532 597.558 369.031C596.766 368.524 595.869 368.271 594.867 368.271C593.859 368.271 592.96 368.524 592.168 369.031C591.377 369.532 590.75 370.273 590.289 371.252C589.833 372.226 589.606 373.425 589.606 374.848C589.606 376.272 589.833 377.473 590.289 378.453C590.75 379.426 591.377 380.167 592.168 380.673C592.96 381.175 593.859 381.425 594.867 381.425C595.869 381.425 596.766 381.175 597.558 380.673C598.355 380.167 598.981 379.426 599.437 378.453C599.898 377.473 600.129 376.272 600.129 374.848ZM630.481 374.848C630.481 376.716 630.139 378.322 629.456 379.666C628.772 381.004 627.836 382.034 626.646 382.758C625.461 383.475 624.114 383.834 622.605 383.834C621.091 383.834 619.738 383.475 618.548 382.758C617.364 382.034 616.43 381.001 615.747 379.657C615.063 378.313 614.722 376.71 614.722 374.848C614.722 372.98 615.063 371.377 615.747 370.039C616.43 368.695 617.364 367.665 618.548 366.947C619.738 366.224 621.091 365.862 622.605 365.862C624.114 365.862 625.461 366.224 626.646 366.947C627.836 367.665 628.772 368.695 629.456 370.039C630.139 371.377 630.481 372.98 630.481 374.848ZM627.867 374.848C627.867 373.425 627.636 372.226 627.175 371.252C626.72 370.273 626.093 369.532 625.296 369.031C624.505 368.524 623.608 368.271 622.605 368.271C621.598 368.271 620.698 368.524 619.906 369.031C619.115 369.532 618.488 370.273 618.027 371.252C617.572 372.226 617.344 373.425 617.344 374.848C617.344 376.272 617.572 377.473 618.027 378.453C618.488 379.426 619.115 380.167 619.906 380.673C620.698 381.175 621.598 381.425 622.605 381.425C623.608 381.425 624.505 381.175 625.296 380.673C626.093 380.167 626.72 379.426 627.175 378.453C627.636 377.473 627.867 376.272 627.867 374.848ZM633.6 368.374V366.101H647.139V368.374H641.681V383.595H639.05V368.374H633.6ZM650.25 387.823V381.357H651.403C651.796 381.027 652.163 380.557 652.505 379.947C652.846 379.338 653.137 378.515 653.376 377.479C653.615 376.443 653.78 375.113 653.871 373.49L654.281 366.101H665.069V381.357H667.051V387.797H664.523V383.595H652.778V387.823H650.25ZM654.512 381.357H662.541V368.374H656.673L656.4 373.49C656.326 374.726 656.203 375.836 656.032 376.821C655.867 377.806 655.654 378.678 655.392 379.435C655.136 380.187 654.842 380.827 654.512 381.357ZM673.239 373.157H677.954C679.252 373.157 680.357 373.368 681.268 373.789C682.179 374.21 682.874 374.805 683.352 375.574C683.836 376.343 684.076 377.248 684.07 378.29C684.076 379.332 683.836 380.252 683.352 381.049C682.874 381.847 682.179 382.47 681.268 382.92C680.357 383.37 679.252 383.595 677.954 383.595H671.403V366.101H674.051V381.374H677.954C678.711 381.374 679.349 381.226 679.867 380.93C680.391 380.634 680.787 380.249 681.055 379.777C681.328 379.304 681.465 378.797 681.465 378.256C681.465 377.47 681.163 376.796 680.559 376.232C679.956 375.662 679.087 375.378 677.954 375.378H673.239V373.157ZM688.332 366.101V383.595H685.684V366.101H688.332ZM695.453 366.101L699.639 372.943H699.775L703.961 366.101H707.019L701.569 374.848L707.053 383.595H703.978L699.775 376.847H699.639L695.436 383.595H692.361L697.939 374.848L692.395 366.101H695.453ZM712.558 383.595H709.756L716.051 366.101H719.101L725.396 383.595H722.594L717.648 369.279H717.512L712.558 383.595ZM713.027 376.744H722.116V378.965H713.027V376.744Z" fill="black"/>
</svg>
