<svg width="289" height="135" viewBox="0 0 289 135" fill="none" xmlns="http://www.w3.org/2000/svg">
<rect width="288.788" height="134.32" rx="8" fill="black"/>
<path d="M16 23.917C16 21.6162 16.7105 19.7215 18.132 18.2332C19.621 16.7443 21.5162 16 23.817 16H33.6646V23.3078H26.6598C24.8324 23.3078 23.9189 24.3228 23.9189 26.3528V108.362C23.9189 110.392 24.8324 111.406 26.6598 111.406H33.6646V118.714H23.8175C21.5157 118.714 19.621 117.97 18.132 116.481C16.7105 114.993 16 113.098 16 110.797V23.917ZM99.1769 95.1673H97.9586C97.1463 96.7236 96.0972 98.0769 94.8111 99.227C93.6049 100.369 92.2365 101.327 90.7503 102.069C89.3293 102.813 87.8065 103.355 86.1817 103.693C84.5576 104.099 83.0012 104.302 81.5119 104.302C78.1281 104.302 74.9809 103.727 72.0706 102.577C69.1602 101.426 66.5885 99.7686 64.3551 97.6032C62.1892 95.4382 60.4635 92.7652 59.1774 89.585C57.9591 86.3373 57.3499 82.6494 57.3499 78.5217V76.898C57.3499 72.8381 57.993 69.2181 59.2788 66.0379C60.5649 62.7898 62.2906 60.0833 64.4565 57.9182C66.6224 55.685 69.1602 53.9937 72.0706 52.8431C74.9809 51.693 78.0602 51.1179 81.3091 51.1179C84.7608 51.1179 87.9757 51.8961 90.9534 53.4522C93.9992 54.9407 96.334 57.2753 97.9586 60.4555H99.1769V31.8334H107.095V102.881H99.1769V95.1673ZM82.3242 96.7914C84.693 96.7914 86.8928 96.3514 88.9229 95.4717C90.9535 94.5923 92.713 93.3402 94.202 91.7165C95.7587 90.0926 96.977 88.1642 97.8568 85.931C98.7366 83.6308 99.1769 81.0929 99.1769 78.3191V77.101C99.1769 74.3946 98.7366 71.9246 97.8568 69.6919C96.977 67.3911 95.7587 65.4289 94.202 63.805C92.713 62.1812 90.9195 60.9293 88.8214 60.0497C86.7909 59.1022 84.6255 58.6286 82.3242 58.6286C79.9555 58.6286 77.7217 59.0683 75.6237 59.948C73.5934 60.8274 71.7999 62.0795 70.2432 63.7032C68.7544 65.3275 67.57 67.2558 66.6897 69.4887C65.8779 71.7214 65.4714 74.1914 65.4714 76.898V78.5217C65.4714 81.3639 65.8779 83.9012 66.6897 86.1341C67.57 88.3671 68.7544 90.2957 70.2432 91.9196C71.7885 93.468 73.6144 94.708 75.6237 95.5735C77.6543 96.3853 79.8877 96.7914 82.3242 96.7914ZM137.481 97.1974C137.481 95.2352 138.158 93.5773 139.511 92.224C140.933 90.8029 142.625 90.0926 144.588 90.0926C146.55 90.0926 148.209 90.8029 149.562 92.224C150.984 93.5773 151.694 95.2352 151.694 97.1974C151.694 99.1597 150.984 100.851 149.562 102.272C148.209 103.625 146.55 104.302 144.588 104.302C142.625 104.302 140.933 103.625 139.511 102.272C138.158 100.851 137.481 99.1597 137.481 97.1974ZM182.79 52.5387H198.628V31.8334H206.546V52.5387H226.039V59.8465H206.546V92.5286C206.546 94.5582 207.459 95.5735 209.288 95.5735H223.601V102.881H206.445C204.143 102.881 202.248 102.137 200.76 100.648C199.338 99.1597 198.628 97.2647 198.628 94.9645V59.8465H182.79V52.5387ZM273.175 110.798C273.175 113.099 272.43 114.993 270.942 116.482C269.52 117.971 267.658 118.715 265.358 118.715H255.511V111.407H262.516C264.342 111.407 265.256 110.392 265.256 108.362V26.3525C265.256 24.3228 264.342 23.3075 262.516 23.3075H255.511V16.0004H265.358C267.658 16.0004 269.52 16.7447 270.942 18.2332C272.43 19.7218 273.175 21.6166 273.175 23.917V110.798Z" fill="white"/>
</svg>
